<mxfile host="app.diagrams.net" modified="2024-04-13T20:39:59.565Z" agent="Mozilla/5.0 (Windows NT 10.0; Win64; x64) AppleWebKit/537.36 (KHTML, like Gecko) Chrome/123.0.0.0 Safari/537.36 Edg/123.0.0.0" version="24.2.5" etag="lJXFjURjSUZlKmK5bAPl" type="github">
  <diagram name="Page-1" id="KL4q_usjUKb88x-7Kzjw">
    <mxGraphModel>
      <root>
        <mxCell id="0" />
        <mxCell id="1" parent="0" />
      </root>
    </mxGraphModel>
  </diagram>
</mxfile>
